<svg width="203" height="51" viewBox="0 0 203 51" fill="none" xmlns="http://www.w3.org/2000/svg" style="width:100px;height:auto"><g clip-path="url(#clip0_2224_909)"><path d="M202.909 18.3945V22.3664H198.029V36.1313C198.029 37.0291 198.21 37.653 198.573 38.003C198.952 38.353 199.618 38.5281 200.569 38.5281H202.909V42.5H199.89C195.456 42.5 193.239 40.5826 193.239 36.7475V11.8203H198.029V18.3945H202.909Z" fill="#191A25"></path><path d="M181.186 43.0708C179.355 43.0708 177.705 42.7739 176.238 42.1805C174.771 41.587 173.583 40.7044 172.675 39.5326C171.783 38.3608 171.282 36.9074 171.177 35.1726H175.897C176.171 37.8814 177.903 39.2357 181.094 39.2357C182.609 39.2357 183.804 38.9238 184.681 38.2999C185.573 37.676 186.02 36.8846 186.02 35.9258C186.02 35.1041 185.702 34.4497 185.066 33.9627C184.431 33.4605 183.599 33.0953 182.57 32.867L178.598 31.9767C174.014 30.9724 171.722 28.6745 171.722 25.0829C171.722 22.9525 172.562 21.2176 174.24 19.8783C175.936 18.5393 178.151 17.8696 180.891 17.8696C183.599 17.8696 185.824 18.5772 187.563 19.9926C189.319 21.3925 190.227 23.3101 190.288 25.7449H185.702C185.687 24.5732 185.249 23.6068 184.385 22.8459C183.523 22.0698 182.381 21.6817 180.959 21.6817C179.597 21.6817 178.515 22.0013 177.714 22.6405C176.911 23.2795 176.51 24.0634 176.51 24.9916C176.51 25.8134 176.813 26.4754 177.418 26.9775C178.038 27.4799 178.885 27.8527 179.96 28.0961L184.045 29.0092C186.376 29.5267 188.094 30.3255 189.197 31.406C190.303 32.4866 190.854 33.9018 190.854 35.652C190.854 37.1889 190.431 38.5129 189.583 39.6238C188.751 40.7195 187.608 41.5717 186.157 42.1805C184.703 42.7739 183.046 43.0708 181.186 43.0708Z" fill="#191A25"></path><path d="M156.876 42.888C154.486 42.888 152.503 42.2793 150.93 41.0619C149.356 39.8292 148.569 38.0106 148.569 35.6061C148.569 33.7799 149.016 32.3798 149.908 31.4059C150.816 30.4168 151.989 29.7091 153.426 29.2829C154.879 28.8569 156.415 28.545 158.034 28.3471C159.532 28.1645 160.719 28.0124 161.597 27.8905C162.475 27.7687 163.095 27.5862 163.458 27.3427C163.836 27.0993 164.026 26.6807 164.026 26.0873V25.8817C164.026 24.7099 163.602 23.7513 162.754 23.0055C161.907 22.2446 160.719 21.8641 159.191 21.8641C157.663 21.8641 156.415 22.2369 155.446 22.9827C154.478 23.7132 153.948 24.6339 153.858 25.7447H149.159C149.265 23.4468 150.226 21.5675 152.042 20.1065C153.858 18.6455 156.263 17.915 159.259 17.915C162.21 17.915 164.532 18.6455 166.227 20.1065C167.922 21.5675 168.769 23.523 168.769 25.973V42.4999H164.048V39.0758H163.957C163.458 40.0499 162.664 40.9325 161.574 41.7239C160.5 42.4999 158.934 42.888 156.876 42.888ZM157.852 39.0074C159.97 39.0074 161.529 38.4595 162.528 37.3639C163.541 36.2529 164.048 34.9594 164.048 33.4831V30.6526C163.73 30.9114 163.012 31.1472 161.892 31.3603C160.772 31.558 159.577 31.7483 158.306 31.931C156.99 32.1287 155.832 32.5017 154.834 33.0495C153.835 33.5974 153.336 34.48 153.336 35.6974C153.336 36.7323 153.737 37.5465 154.538 38.1399C155.356 38.7183 156.46 39.0074 157.852 39.0074Z" fill="#191A25"></path><path d="M136.584 43.048C134.299 43.048 132.294 42.5154 130.569 41.45C128.859 40.3848 127.528 38.9087 126.575 37.0215C125.621 35.1194 125.145 32.9432 125.145 30.493C125.145 28.0125 125.621 25.821 126.575 23.9187C127.543 22.0164 128.882 20.5327 130.592 19.4675C132.302 18.3869 134.299 17.8467 136.584 17.8467C138.49 17.8467 140.192 18.2271 141.69 18.9881C143.203 19.7338 144.429 20.7686 145.367 22.0926C146.305 23.4166 146.873 24.9307 147.069 26.6352H142.303C142.061 25.2808 141.456 24.1698 140.488 23.3025C139.519 22.435 138.226 22.0013 136.606 22.0013C134.533 22.0013 132.915 22.7699 131.749 24.3068C130.584 25.8438 130.002 27.9059 130.002 30.493C130.002 33.0496 130.584 35.0889 131.749 36.6106C132.915 38.1324 134.533 38.8934 136.606 38.8934C138.256 38.8934 139.527 38.4748 140.419 37.6379C141.312 36.7857 141.917 35.652 142.235 34.2367H147.069C146.888 35.9107 146.328 37.4173 145.39 38.7565C144.452 40.0805 143.226 41.1304 141.713 41.9066C140.2 42.6675 138.49 43.048 136.584 43.048Z" fill="#191A25"></path><path d="M110.617 42.9796C108.529 42.9796 106.706 42.4545 105.147 41.4046C103.589 40.3392 102.379 38.8707 101.516 36.9989C100.654 35.1119 100.222 32.928 100.222 30.4476C100.222 27.9669 100.654 25.7908 101.516 23.9189C102.394 22.0319 103.612 20.5633 105.17 19.5133C106.729 18.448 108.537 17.9153 110.595 17.9153C112.153 17.9153 113.575 18.2426 114.862 18.8969C116.148 19.5514 117.177 20.5481 117.948 21.8874H117.994V8.48779H122.783V42.5002H118.084V38.825H118.039C117.237 40.2251 116.186 41.2676 114.884 41.9523C113.598 42.6373 112.176 42.9796 110.617 42.9796ZM111.593 38.825C113.636 38.825 115.262 38.0641 116.473 36.5424C117.698 35.0053 118.311 32.9738 118.311 30.4476C118.311 27.9061 117.698 25.8744 116.473 24.3527C115.262 22.8156 113.636 22.0472 111.593 22.0472C109.657 22.0472 108.083 22.77 106.872 24.2157C105.677 25.6463 105.079 27.7235 105.079 30.4476C105.079 33.1715 105.677 35.2489 106.872 36.6793C108.083 38.1098 109.657 38.825 111.593 38.825Z" fill="#191A25"></path><path d="M97.8377 8.48779V42.5002H93.0488V8.48779H97.8377Z" fill="#191A25"></path><path d="M79.2022 43.048C76.9173 43.048 74.9125 42.5154 73.1876 41.45C71.4627 40.3848 70.1161 38.9087 69.1477 37.0215C68.1944 35.1345 67.7178 32.9583 67.7178 30.493C67.7178 27.9972 68.1944 25.8059 69.1477 23.9187C70.1161 22.0164 71.4627 20.5327 73.1876 19.4675C74.9125 18.3869 76.9173 17.8467 79.2022 17.8467C81.4869 17.8467 83.4842 18.3869 85.194 19.4675C86.9189 20.5327 88.258 22.0164 89.2113 23.9187C90.1796 25.8059 90.6639 27.9972 90.6639 30.493C90.6639 32.9583 90.1796 35.1345 89.2113 37.0215C88.258 38.9087 86.9189 40.3848 85.194 41.45C83.4842 42.5154 81.4869 43.048 79.2022 43.048ZM79.2022 38.8934C81.2599 38.8934 82.879 38.1324 84.0592 36.6106C85.2393 35.0889 85.8296 33.0496 85.8296 30.493C85.8296 27.9059 85.2319 25.8438 84.0365 24.3068C82.8562 22.7699 81.2449 22.0013 79.2022 22.0013C77.1596 22.0013 75.5405 22.7699 74.3451 24.3068C73.165 25.8287 72.5749 27.8906 72.5749 30.493C72.5749 33.0649 73.165 35.1117 74.3451 36.6335C75.5254 38.1401 77.1443 38.8934 79.2022 38.8934Z" fill="#191A25"></path><path d="M50.739 43.0477C47.7733 43.0477 45.1255 42.3019 42.7953 40.8105C40.4803 39.3192 38.6494 37.2571 37.3028 34.6243C35.9712 31.9917 35.3054 28.9557 35.3054 25.5164C35.3054 22.0161 35.9788 18.9498 37.3254 16.317C38.6721 13.6843 40.518 11.6298 42.8634 10.1537C45.2239 8.67752 47.9171 7.93945 50.9434 7.93945C53.3946 7.93945 55.6338 8.43403 57.6615 9.42321C59.7041 10.4124 61.3912 11.782 62.7226 13.5321C64.0694 15.2822 64.9167 17.3137 65.2647 19.6269H60.158C59.6889 17.5269 58.6298 15.83 56.9804 14.5365C55.3313 13.2277 53.3415 12.5734 51.0113 12.5734C48.8779 12.5734 47.0093 13.1136 45.4054 14.1941C43.8165 15.2746 42.5759 16.7888 41.6831 18.7366C40.8055 20.6694 40.3667 22.9294 40.3667 25.5164C40.3667 28.0882 40.8055 30.3482 41.6831 32.296C42.5759 34.2287 43.8165 35.7353 45.4054 36.8158C47.0093 37.881 48.8855 38.4136 51.0341 38.4136C52.759 38.4136 54.3327 38.0485 55.7548 37.318C57.1772 36.5875 58.3196 35.5451 59.182 34.1907C60.0596 32.8363 60.5286 31.2231 60.5891 29.3513H52.1461V25.1283H65.5144V42.4998H61.8148L61.2701 37.8887C60.2261 39.4256 58.8113 40.6736 57.0259 41.6322C55.2405 42.5759 53.1447 43.0477 50.739 43.0477Z" fill="#191A25"></path><path fill-rule="evenodd" clip-rule="evenodd" d="M22.1424 25.5C22.1424 13.3059 12.2403 3.4 0 3.4V0C14.0845 0 25.5229 11.4054 25.5229 25.5C25.5229 39.5947 14.0845 51 0 51V47.6C12.2403 47.6 22.1424 37.6941 22.1424 25.5Z" fill="#191A25"></path><path fill-rule="evenodd" clip-rule="evenodd" d="M12.6769 25.5001C12.6769 18.4585 7.00129 12.7501 0 12.7501V9.3501C8.86829 9.3501 16.0575 16.5807 16.0575 25.5001C16.0575 34.4195 8.86829 41.6501 0 41.6501V38.2501C7.00129 38.2501 12.6769 32.5417 12.6769 25.5001Z" fill="#191A25"></path></g><defs><clipPath id="clip0_2224_909"><rect width="203" height="51" fill="white"></rect></clipPath></defs></svg>