<svg width="174" height="54" viewBox="0 0 174 64" fill="none" xmlns="http://www.w3.org/2000/svg" style="width:80px;height:auto"><g clip-path="url(#clip0_2224_920)"><path d="M59.1487 0V7.15059H65.8011V63.1169H72.9869V0H59.1487Z" fill="#191A25"></path><path d="M124.172 41.1373C124.172 26.0414 115.745 17.0376 102.792 17.0376C89.8403 17.0376 81.324 25.6006 81.324 40.695C81.324 55.7894 89.7509 64 102.792 64C113.082 64 120.801 58.0849 122.93 49.8758H114.946C113.171 53.6722 109.535 57.0263 102.792 57.0263C94.0985 57.0263 89.6639 51.5535 88.7762 43.6967H124.172V41.1373ZM88.8656 36.9C89.9289 29.3086 94.5431 23.9228 102.792 23.9228C111.042 23.9228 115.389 29.2201 116.454 36.9H88.8656Z" fill="#191A25"></path><path d="M152.469 17.0376C139.428 17.0376 131.001 25.6006 131.001 40.695C131.001 55.7894 139.428 64 152.469 64C165.51 64 173.848 56.0547 173.848 40.695C173.848 25.3352 165.422 17.0376 152.469 17.0376ZM152.469 57.2033C143.154 57.2033 138.098 49.9642 138.098 40.608C138.098 31.2518 143.154 23.7474 152.469 23.7474C161.784 23.7474 166.752 31.0749 166.752 40.608C166.752 50.1411 161.873 57.2033 152.469 57.2033Z" fill="#191A25"></path><path d="M37.5039 0H22.8657L10.1609 36.9H17.8978L28.1891 6.79674H31.9153L42.2052 36.9H17.8978L15.5036 43.6967H44.512L51.1644 63.1169H59.1488L37.5039 0Z" fill="#191A25"></path><path d="M1.13184 63.1169H8.84956L15.5034 43.6968H7.81982L1.13184 63.1169Z" fill="#191A25"></path><path d="M2.49207 36.8999L0.151123 43.6966H7.81993L10.1609 36.8999H2.49207Z" fill="#191A25"></path></g><defs><clipPath id="clip0_2224_920"><rect width="174" height="64" fill="white"></rect></clipPath></defs></svg>