<svg width="100%" height="100%" viewBox="0 0 514 99" fill="none" xmlns="http://www.w3.org/2000/svg" style="width:100px;height:auto"><g clip-path="url(#clip0_2379_8642)"><mask id="mask0_2379_8642" style="mask-type:luminance" maskUnits="userSpaceOnUse" x="92" y="0" width="422" height="99"><path d="M513.84 0H92.498V99H513.84V0Z" fill="white"></path></mask><g mask="url(#mask0_2379_8642)"><path d="M107.577 51.1579C108.209 57.7105 113.103 63.5526 122.419 63.5526C129.603 63.5526 133.314 59.6842 133.314 55.1842C133.314 51.3158 130.63 48.3158 124.788 47.1316L114.051 44.7632C101.182 41.9211 94.4717 33.5526 94.4717 23.5263C94.4717 10.7368 106.077 0 121.235 0C141.603 0 148.156 13.1842 149.34 20.3684L134.656 24.5526C134.024 20.3684 130.945 13.6579 121.156 13.6579C114.998 13.6579 110.656 17.5263 110.656 22.0263C110.656 25.8947 113.498 28.7368 117.998 29.6842L129.051 31.8947C142.945 34.8947 150.13 43.2632 150.13 54C150.13 65.0526 141.13 77.3684 122.577 77.3684C101.498 77.3684 93.3664 63.5526 92.498 55.3421L107.577 51.1579Z" fill="#191A25"></path><path d="M174.209 75.0787H156.84V2.21032H173.735V7.89453C178.63 0.236629 186.051 0.0787338 195.288 0.157681C213.13 0.315576 221.656 13.0261 221.656 29.0524V75.1577H204.288V32.0524C204.288 23.0524 200.261 15.8682 189.288 15.8682C179.419 15.8682 174.209 23.5261 174.209 33.0787V75.0787Z" fill="#191A25"></path><path d="M261.682 77.0524C240.288 77.0524 226.551 60.1577 226.551 38.2893C226.551 17.2103 240.445 0.157715 261.445 0.157715C274.314 0.157715 278.34 3.47351 282.84 7.81561V2.2893H299.735V61.8156C299.735 67.8156 300.367 73.6577 300.445 75.1577H283.867C283.551 73.4998 283.314 72.4735 283.156 68.8419C279.682 73.184 272.182 77.0524 261.682 77.0524ZM263.656 62.0524C275.024 62.0524 282.919 52.3419 282.919 38.2893C282.919 24.2366 275.103 15.2366 263.656 15.2366C251.972 15.2366 243.919 24.2366 243.919 38.2893C243.919 52.184 251.577 62.0524 263.656 62.0524Z" fill="#191A25"></path><path d="M311.419 98.763V2.21029H328.156V7.8945C335.182 3.07871 340.156 0.631348 351.367 0.631348C372.919 0.631348 384.998 17.0524 384.998 38.6051C384.998 60.4735 371.656 76.8945 350.735 76.8945C340.235 76.8945 335.182 73.6577 328.63 68.9209V98.8419H311.419V98.763ZM348.051 16.0261C336.682 16.0261 328.472 25.0261 328.472 38.6051C328.472 52.4998 336.682 61.4998 348.051 61.4998C359.577 61.4998 367.63 52.4998 367.63 38.6051C367.63 24.9472 359.735 16.0261 348.051 16.0261Z" fill="#191A25"></path><path d="M391.314 99.0001V2.44745H408.051V8.05271C415.077 3.15798 420.051 0.789551 431.261 0.789551C452.814 0.789551 464.893 17.2106 464.893 38.7633C464.893 60.6317 451.551 77.0527 430.63 77.0527C420.13 77.0527 415.077 73.8159 408.524 69.079V99.0001H391.314ZM427.945 16.1843C416.577 16.1843 408.367 25.1843 408.367 38.7633C408.367 52.658 416.577 61.658 427.945 61.658C439.472 61.658 447.524 52.658 447.524 38.7633C447.524 25.1843 439.63 16.1843 427.945 16.1843Z" fill="#191A25"></path><path d="M513.84 19.4212C511.867 19.1054 509.972 18.9475 508.156 18.9475C494.656 18.9475 488.577 26.7633 488.577 40.3422V75.079H471.209V2.21065H488.103V7.65801C495.445 0.710646 500.577 0.710646 509.182 1.34223C511.235 1.50012 513.051 1.65801 513.84 1.81591V19.4212Z" fill="#191A25"></path></g><path d="M19.2856 0H38.571V13.0559C38.571 16.4963 35.7819 19.2854 32.3415 19.2854H19.2856V0Z" fill="#191A25"></path><path d="M0 6.22948C0 2.78904 2.78903 0 6.22948 0H19.2854V19.2854H0V6.22948Z" fill="#191A25"></path><path d="M0 19.2856H19.2854V32.3415C19.2854 35.782 16.4963 38.571 13.0559 38.571H0V19.2856Z" fill="#191A25"></path><path d="M38.2125 76.7604H18.9272V63.7046C18.9272 60.2641 21.7162 57.4751 25.1566 57.4751H38.2125V76.7604Z" fill="#191A25"></path><path d="M57.4983 70.531C57.4983 73.9714 54.7092 76.7604 51.2688 76.7604H38.2129V57.4751H57.4983V70.531Z" fill="#191A25"></path><path d="M57.4983 57.4752H38.2129V44.4194C38.2129 40.9789 41.0019 38.1899 44.4424 38.1899H57.4983V57.4752Z" fill="#191A25"></path></g><defs><clipPath id="clip0_2379_8642"><rect width="514" height="99" fill="white"></rect></clipPath></defs></svg>