<svg width="228" height="48" viewBox="0 0 228 48" fill="none" xmlns="http://www.w3.org/2000/svg" style="width:100px;height:auto"><path d="M46.459 24.9882H50.8072C51.2872 30.0141 54.5907 33.2894 60.2378 33.2894C65.2637 33.2894 68.906 31.3694 68.906 26.9647C68.906 17.6471 47.7013 22.7576 47.7013 9.79765C47.7013 4.03765 52.7272 0.169412 59.9837 0.169412C67.2402 0.169412 72.266 4.37647 72.7743 10.8988H68.426C68.0025 6.80471 64.8402 4.15059 59.9837 4.15059C55.0707 4.15059 52.1625 6.32471 52.1625 9.79765C52.1625 19.0871 73.5084 13.3271 73.5084 26.9647C73.5084 33.5435 67.8049 37.2706 60.2378 37.2706C52.1343 37.2706 46.939 32.3859 46.459 24.9882ZM89.9978 33.2894L85.226 47.4353H81.2449L84.5484 37.2706L74.8072 10.7294H79.099L86.4966 31.4541L93.9225 10.7294H98.2707L89.9978 33.2894ZM99.2307 23.8024C99.2307 16.1788 103.692 10.3341 111.824 10.3341C115.494 10.3341 118.911 12.1976 120.492 14.9929V0H124.643V36.8471H120.464V32.5553C118.911 35.4071 115.494 37.2706 111.795 37.2706C103.692 37.2706 99.2307 31.4259 99.2307 23.8024ZM120.831 23.8024C120.831 17.9012 117.414 14.0612 112.163 14.0612C106.939 14.0612 103.466 17.9012 103.466 23.8024C103.466 29.7035 106.939 33.5435 112.163 33.5435C117.414 33.5435 120.831 29.7035 120.831 23.8024ZM154.261 28.4612C153.386 33.7976 148.755 37.2706 142.29 37.2706C134.553 37.2706 129.386 31.1153 129.386 23.6329C129.386 15.9529 134.158 10.3059 141.838 10.3059C149.461 10.3059 154.007 15.5859 154.007 22.5318C154.007 23.0965 153.951 23.9718 153.894 24.3388H133.48C133.791 29.7318 137.377 33.5718 142.29 33.5718C146.525 33.5718 149.235 31.7082 150.054 28.4329H154.261V28.4612ZM133.678 21.0353H149.744C149.433 16.6306 146.468 13.8353 141.81 13.8353C137.405 13.8353 134.468 16.4329 133.678 21.0353ZM157.311 23.8024C157.311 16.8 161.772 10.3341 170.017 10.3341C175.861 10.3341 181.113 13.7506 181.875 19.5671H177.781C177.273 16.4047 173.998 14.0612 170.073 14.0612C164.37 14.0612 161.631 18.4659 161.631 23.8024C161.631 29.1388 164.426 33.5435 170.073 33.5435C173.998 33.5435 176.85 31.5671 177.781 28.4047H181.819C180.944 33.7412 176.624 37.2706 169.988 37.2706C161.772 37.2706 157.311 30.8047 157.311 23.8024ZM207.061 20.0188V36.8753H202.911V32.3576C201.499 35.3506 198.026 37.2706 193.988 37.2706C188.483 37.2706 184.925 34.1647 184.925 29.3929C184.925 24.4235 189.019 21.2612 195.344 21.2612H201.245C202.374 21.2612 202.911 20.6965 202.911 19.8494C202.911 16.2918 200.37 13.8353 195.908 13.8353C192.068 13.8353 189.075 16.2071 188.85 19.0588H184.897C185.377 14.0329 190.12 10.3059 195.993 10.3059C202.798 10.3059 207.061 14.2024 207.061 20.0188ZM202.911 25.1012V24.4235H195.598C191.701 24.4235 189.16 26.2871 189.16 29.3365C189.16 32.0188 191.278 33.7412 194.61 33.7412C199.861 33.7412 202.911 30.4941 202.911 25.1012ZM223.325 14.4C218.045 14.4 216.548 19.1718 216.548 25.3271V36.8471H212.398V10.7294H216.548V16.0094C217.621 12.4235 219.824 10.7294 223.635 10.7294H226.939V14.4H223.325Z" fill="#191A25"></path><path d="M20.8212 17.5059H1L18.4212 3.58594H38.2706L20.8212 17.5059ZM20.8212 35.153H1L18.4212 21.2612H38.2706L20.8212 35.153Z" fill="#191A25"></path></svg>