<svg width="112" height="24" viewBox="0 0 112 24" fill="none" xmlns="http://www.w3.org/2000/svg" style="width:90px;height:auto"><path fill-rule="evenodd" clip-rule="evenodd" d="M69.0001 0.644685C68.9968 0.472717 69.062 0.306748 69.1808 0.185122C69.2996 0.0634952 69.4617 -0.00326748 69.6296 0.000123121H77.5005C81.6222 0.000123121 84.9998 3.42854 84.9998 7.5899C84.9998 11.8385 81.6222 15.2963 77.5294 15.2963H73.3507V23.3545C73.3375 23.7051 73.063 23.9862 72.7207 23.9997H69.6296C69.2831 23.9964 69.003 23.7094 69.0001 23.3545V0.644685ZM20.0001 0.645499C19.9969 0.473205 20.0612 0.306945 20.1784 0.185157C20.2956 0.0633685 20.4555 -0.00340355 20.6211 0.000133714H34.0456C34.3871 0.00291899 34.6635 0.290141 34.6665 0.645499V3.46235C34.6696 3.63461 34.6052 3.8008 34.4881 3.92256C34.3709 4.04432 34.2111 4.11114 34.0456 4.10757H24.2871V9.74058H32.4383C32.7754 9.75381 33.0458 10.0351 33.0585 10.3858V13.2322C33.0556 13.5874 32.7796 13.8745 32.4383 13.8775H24.2871V19.8922H34.0456C34.3871 19.8949 34.6635 20.1821 34.6665 20.5375V23.3543C34.6696 23.5266 34.6052 23.6928 34.4881 23.8145C34.3709 23.9363 34.2111 24.0031 34.0456 23.9997H20.6211C20.2795 23.9969 20.0032 23.7097 20.0001 23.3543V0.645499ZM5.79451 4.10758H0.634139C0.28526 4.10463 0.00314768 3.81747 0.000121068 3.46235V0.64548C-0.00321353 0.473299 0.0624572 0.307127 0.182094 0.18535C0.30173 0.063574 0.464983 -0.00327133 0.634139 0.000123266H15.3658C15.7147 0.00320321 15.9968 0.29036 15.9998 0.64548V3.46235C16.003 3.6345 15.9373 3.8006 15.8177 3.92235C15.6981 4.0441 15.5349 4.11098 15.3658 4.10758H10.2054V23.3544C10.1921 23.7053 9.91555 23.9865 9.57085 23.9997H6.42909C6.08439 23.9865 5.80783 23.7053 5.79451 23.3544V4.10758ZM43.671 0.000760069C43.3603 -0.0148076 43.0916 0.210544 43.0598 0.513363L39.0155 22.8889C38.9282 23.3448 39.2188 23.6578 39.6553 23.6578H42.7106C43.0019 23.6578 43.2931 23.3728 43.3218 23.1452L45.3006 10.5338H45.4173L51.4405 23.6291C51.5571 23.8287 51.7024 23.9995 52.0223 23.9995H52.6335C52.9534 23.9995 53.1574 23.8287 53.2153 23.6291L59.1806 10.5338H59.2972L61.3047 23.1452C61.3773 23.4368 61.6387 23.646 61.9452 23.6578H65.0291C65.4657 23.6578 65.757 23.3448 65.6403 22.8889L61.6246 0.513363C61.596 0.228356 61.392 0.000760069 61.0141 0.000760069H60.4609C60.141 0.000760069 59.9957 0.143605 59.8791 0.342496L52.4009 16.0569H52.2842L44.8061 0.342496C44.691 0.132701 44.4676 0.00151339 44.2242 0.000760069H43.671ZM79.9076 9.65127C79.2002 10.3012 78.2374 10.6668 77.233 10.6665H73V4H77.233C79.2878 4 80.9997 5.39011 80.9997 7.20522C81.0081 8.1207 80.6149 9.00129 79.9076 9.65127ZM99.9856 3.32574e-10C106.663 3.32574e-10 111.999 5.35817 111.999 12.0282C111.999 18.6982 106.663 23.9995 99.9856 23.9995C93.3081 23.9995 87.9999 18.6975 87.9999 12.0282C87.9999 5.35885 93.3081 3.32574e-10 99.9856 3.32574e-10ZM108 12.0295C108 16.4012 104.365 19.9997 99.9852 19.9997C95.6053 19.9997 92 16.4012 92 12.0295C92 7.65774 95.6053 4 99.9852 4C104.365 4 108 7.65774 108 12.0295Z" fill="#191A25"></path></svg>