<svg width="141" height="31" viewBox="0 0 141 31" fill="none" xmlns="http://www.w3.org/2000/svg" style="width:100px;height:auto"><path d="M33.8 6.6001H39.2001C42.6001 6.6001 45 7.7001 45 11.3001V11.4001C45 13.0001 44.3 14.5001 42.3 15.2001C44.9 15.8001 45.9001 17.2001 45.9001 19.5001V19.6001C45.9001 23.0001 43.6 24.7001 40 24.7001H33.8V6.6001ZM39.3 14.5001C42 14.5001 43 13.5001 43 11.3001V11.2001C43 9.1001 41.8 8.3001 39.3 8.3001H36V14.5001H39.3ZM40 23.0001C42.6 23.0001 43.8 21.8001 43.8 19.6001V19.5001C43.8 17.3001 42.6 16.2001 39.6 16.2001H36V23.0001H40Z" fill="#191A25"></path><path d="M48.5 11.3997H50.6V13.7997C51.4 12.2997 52.6 11.2997 55 11.1997V13.1997C52.3 13.2997 50.6 14.1997 50.6 17.3997V24.6997H48.5V11.3997Z" fill="#191A25"></path><path d="M56 20.9997C56 17.8997 59.2 16.8997 62.6 16.8997H64.5V15.8997C64.5 13.7997 63.7 12.8997 61.7 12.8997C59.9 12.8997 58.9 13.6997 58.7 15.2997H56.6C56.9 12.2997 59.3 11.1997 61.8 11.1997C64.3 11.1997 66.6 12.1997 66.6 15.8997V24.5997H64.5V22.9997C63.5 24.1997 62.3 24.8997 60.4 24.8997C57.9 24.8997 56 23.6997 56 20.9997ZM64.5 19.9997V18.3997H62.7C60 18.3997 58.1 19.0997 58.1 20.9997C58.1 22.3997 58.8 23.1997 60.6 23.1997C62.8 23.1997 64.5 22.0997 64.5 19.9997Z" fill="#191A25"></path><path d="M69.5 7.2999C69.5 6.4999 70.1 5.8999 70.9 5.8999C71.7 5.8999 72.3 6.4999 72.3 7.2999C72.3 8.0999 71.7 8.6999 70.9 8.6999C70.1 8.6999 69.5 7.9999 69.5 7.2999ZM69.9 11.3999H72V24.5999H69.9V11.3999Z" fill="#191A25"></path><path d="M75.4001 11.3997H77.5001V13.4997C78.1001 12.2997 79.6001 11.1997 81.8001 11.1997C84.5001 11.1997 86.5001 12.6997 86.5001 16.4997V24.5997H84.4001V16.2997C84.4001 13.9997 83.4001 12.8997 81.3001 12.8997C79.4001 12.8997 77.6001 14.0997 77.6001 16.4997V24.4997H75.5001V11.3997H75.4001Z" fill="#191A25"></path><path d="M90.1 21.4V13.3H88.2V11.5H90.1V8.5H92.2V11.5H95.3V13.3H92.2V21.2C92.2 22.5 92.8 23.1 93.8 23.1C94.5 23.1 95 23 95.4 22.8V24.6C95 24.8 94.5 24.9 93.6 24.9C91.3 24.9 90.1 23.4 90.1 21.4Z" fill="#191A25"></path><path d="M97.7 11.3997H99.8V13.7997C100.6 12.2997 101.8 11.2997 104.2 11.1997V13.1997C101.5 13.2997 99.8 14.1997 99.8 17.3997V24.6997H97.7V11.3997Z" fill="#191A25"></path><path d="M106.2 19.7999V11.3999H108.3V19.6999C108.3 21.9999 109.3 23.0999 111.4 23.0999C113.3 23.0999 115 21.8999 115 19.4999V11.4999H117.1V24.6999H115V22.5999C114.4 23.7999 112.9 24.8999 110.8 24.8999C108.2 24.8999 106.2 23.4999 106.2 19.7999Z" fill="#191A25"></path><path d="M119.4 20.5998H121.4C121.6 22.1998 122.4 23.1998 124.5 23.1998C126.5 23.1998 127.4 22.4998 127.4 21.0998C127.4 19.6998 126.4 19.2998 124.3 18.8998C120.9 18.2998 119.7 17.2998 119.7 14.9998C119.7 12.4998 122.1 11.2998 124.2 11.2998C126.6 11.2998 128.6 12.2998 129 15.0998H127C126.7 13.6998 125.9 12.9998 124.2 12.9998C122.7 12.9998 121.7 13.7998 121.7 14.8998C121.7 16.0998 122.4 16.5998 124.8 16.9998C127.5 17.4998 129.5 18.0998 129.5 20.8998C129.5 23.2998 127.9 24.8998 124.6 24.8998C121.5 24.8998 119.6 23.2998 119.4 20.5998Z" fill="#191A25"></path><path d="M132.2 21.4V13.3H130.3V11.5H132.2V8.5H134.3V11.5H137.4V13.3H134.3V21.2C134.3 22.5 134.9 23.1 135.9 23.1C136.6 23.1 137.1 23 137.5 22.8V24.6C137.1 24.8 136.6 24.9 135.7 24.9C133.4 24.9 132.2 23.4 132.2 21.4Z" fill="#191A25"></path><path d="M15.6002 21.3001C16.6002 21.3001 17.6002 21.0001 18.6002 20.5001C21.4002 18.9001 22.4002 15.2001 20.8002 12.4001C19.2002 9.60012 15.5002 8.60012 12.7002 10.2001C11.3002 11.0001 10.4002 12.3001 9.9002 13.8001C9.5002 15.3001 9.7002 16.9001 10.5002 18.3001C11.5002 20.3001 13.5002 21.3001 15.6002 21.3001ZM11.7002 14.4001C12.0002 13.4001 12.6002 12.5001 13.6002 12.0001C14.2002 11.6001 14.9002 11.5001 15.6002 11.5001C17.0002 11.5001 18.3002 12.2001 19.1002 13.5001C20.2002 15.4001 19.5002 17.9001 17.6002 19.0001C15.7002 20.1001 13.2002 19.4001 12.1002 17.5001C11.6002 16.5001 11.4002 15.4001 11.7002 14.4001Z" fill="#191A25"></path><path d="M22.2001 11.5001C23.0001 12.8001 24.2001 13.8001 25.7001 14.2001C26.2001 14.3001 26.7001 14.4001 27.2001 14.4001C27.5001 14.4001 27.7001 14.4001 28.0001 14.3001C27.9001 13.7001 27.8001 13.1001 27.7001 12.4001C27.2001 12.5001 26.7001 12.4001 26.2001 12.3001C25.2001 12.0001 24.4001 11.4001 23.8001 10.5001C23.3001 9.6001 23.1001 8.6001 23.4001 7.6001C23.5001 7.1001 23.8001 6.7001 24.1001 6.3001C23.6001 5.9001 23.2001 5.5001 22.6001 5.1001C22.1001 5.7001 21.8001 6.4001 21.6001 7.1001C21.2001 8.7001 21.4001 10.2001 22.2001 11.5001Z" fill="#191A25"></path><path d="M25.7001 16.6001C24.2001 17.0001 23.0001 17.9001 22.2001 19.3001C21.4001 20.6001 21.2001 22.2001 21.6001 23.7001C21.8001 24.5001 22.2001 25.1001 22.6001 25.7001C23.1001 25.3001 23.6001 24.9001 24.1001 24.5001C23.8001 24.1001 23.6001 23.7001 23.4001 23.2001C23.1001 22.2001 23.3001 21.2001 23.8001 20.3001C24.3001 19.4001 25.2001 18.8001 26.2001 18.5001C26.7001 18.4001 27.2001 18.3001 27.7001 18.4001C27.8001 17.8001 27.9001 17.2001 28.0001 16.5001C27.2001 16.3001 26.5001 16.4001 25.7001 16.6001Z" fill="#191A25"></path><path d="M15.5 25.0001C17.1 25.0001 18.5 26.0001 19.1 27.4001C19.7 27.2001 20.3 27.0001 20.9 26.7001C20 24.6001 18 23.1001 15.6 23.1001C13.2 23.1001 11.1 24.6001 10.3 26.7001C10.9 27.0001 11.5 27.2001 12.1 27.4001C12.6 26.0001 13.9 25.0001 15.5 25.0001Z" fill="#191A25"></path><path d="M15.5 7.6999C17.9 7.6999 20 6.1999 20.8 4.0999C20.2 3.7999 19.7 3.5999 19 3.3999C18.4 4.7999 17 5.7999 15.4 5.7999C13.8 5.7999 12.4 4.7999 11.8 3.3999C11.2 3.5999 10.6 3.7999 10 4.0999C11.1 6.1999 13.1 7.6999 15.5 7.6999Z" fill="#191A25"></path><path d="M8.9001 19.2998C8.1001 17.9998 6.9001 16.9998 5.4001 16.5998C4.6001 16.3998 3.9001 16.3998 3.1001 16.4998C3.2001 17.0998 3.3001 17.6998 3.4001 18.3998C3.6001 18.3998 3.7001 18.3998 3.9001 18.3998C4.2001 18.3998 4.6001 18.3998 4.9001 18.4998C5.9001 18.7998 6.7001 19.3998 7.3001 20.2998C8.1001 21.6998 7.9001 23.3998 7.0001 24.5998C7.5001 24.9998 7.9001 25.3998 8.5001 25.7998C9.8001 23.8998 10.1001 21.2998 8.9001 19.2998Z" fill="#191A25"></path><path d="M5.4001 14.2001C6.9001 13.8001 8.1001 12.9001 8.9001 11.5001C9.7001 10.2001 9.9001 8.6001 9.5001 7.1001C9.3001 6.3001 8.9001 5.7001 8.5001 5.1001C7.9001 5.5001 7.4001 5.9001 7.0001 6.3001C7.3001 6.7001 7.5001 7.1001 7.7001 7.6001C8.0001 8.6001 7.8001 9.6001 7.3001 10.5001C6.8001 11.4001 5.9001 12.0001 4.9001 12.3001C4.4001 12.4001 3.9001 12.5001 3.4001 12.4001C3.3001 13.0001 3.2001 13.6001 3.1001 14.3001C3.4001 14.3001 3.6001 14.4001 3.9001 14.4001C4.4001 14.4001 4.9001 14.4001 5.4001 14.2001Z" fill="#191A25"></path></svg>