<svg width="107" height="25" viewBox="0 0 107 25" fill="none" xmlns="http://www.w3.org/2000/svg" style="width:90px;height:auto"><g clip-path="url(#clip0_2224_892)"><path d="M23.2772 9.68098C23.2762 12.0915 22.378 14.4062 20.7746 16.1306C19.1711 17.8551 16.9893 18.8528 14.6952 18.9108V9.11235H5.75C5.90222 6.72752 6.92924 4.49771 8.61493 2.89221C10.3006 1.2867 12.5135 0.430715 14.7879 0.50439C17.0623 0.578065 19.2207 1.57566 20.809 3.28722C22.3973 4.99878 23.2652 7.29083 23.2772 9.68098Z" fill="#191A25"></path><path d="M14.6952 18.9107V24.4998H0V9.1123H5.74999C5.74999 9.29953 5.74999 9.49369 5.74999 9.68092C5.74912 10.8926 5.97559 12.0927 6.41644 13.2124C6.8573 14.3322 7.5039 15.3497 8.31929 16.2069C9.13469 17.0641 10.1029 17.744 11.1686 18.2079C12.2343 18.6719 13.3765 18.9107 14.5301 18.9107H14.6952Z" fill="#191A25"></path><path d="M31.3311 2.17822H40.8678C45.7585 2.17822 48.8151 4.41293 48.8151 9.08783C48.8151 13.7627 45.7585 16.2286 40.6722 16.2286H35.4942V23.6391H31.3311V2.17822ZM40.4521 12.4527C43.1359 12.4527 44.6214 11.5986 44.6214 9.24195C44.6214 6.80817 43.1053 5.9541 40.5927 5.9541H35.5248V12.4206L40.4521 12.4527Z" fill="#191A25"></path><path d="M48.5527 19.7857C48.5527 17.5253 49.9832 16.1703 52.557 15.4382L59.141 13.5632L59.3122 13.5118C59.3122 13.5118 59.3122 13.3769 59.3122 13.3191C59.3122 11.4954 58.2729 10.6734 56.4267 10.6734C54.5805 10.6734 53.0949 11.7009 52.2329 14.231L48.8462 12.9081C50.185 9.11947 53.0155 7.64893 56.5979 7.64893C61.0728 7.64893 63.4509 10.0249 63.4509 13.2292V18.7261C63.4509 19.8756 63.8116 20.492 64.7347 20.492C65.2236 20.4805 65.7031 20.3485 66.1346 20.1067V23.3175C65.1824 23.7163 64.1701 23.9338 63.1452 23.9597C61.0422 23.9597 59.4222 22.7588 59.4222 20.4342V20.1132H59.3122C58.8013 21.3009 57.9689 22.3045 56.9188 22.9988C55.8686 23.6931 54.6472 24.0474 53.4067 24.0175C50.1789 23.9661 48.5527 21.8149 48.5527 19.7857ZM54.6294 20.6654C55.7325 20.6214 56.7975 20.2299 57.686 19.5416C58.2026 19.1499 58.6228 18.6345 58.912 18.0382C59.2012 17.4419 59.3509 16.7817 59.3489 16.1125C59.3489 16.074 59.3489 15.8492 59.3489 15.8492L59.1043 15.9327L54.4704 17.6087C53.4067 17.994 52.6792 18.2894 52.6792 19.1371C52.667 19.8756 53.2539 20.6654 54.6294 20.6654Z" fill="#191A25"></path><path d="M67.7913 2.17822H71.9789V23.6391H67.7852L67.7913 2.17822Z" fill="#191A25"></path><path d="M74.3447 2.17822H78.5446V23.6391H74.3447V2.17822Z" fill="#191A25"></path><path d="M87.8736 23.9662C82.9524 23.9662 79.9263 20.7554 79.9263 16.0035C79.9263 11.0396 83.093 7.59766 87.9897 7.59766C92.7459 7.59766 95.9065 10.6864 95.9065 16.5364H84.065C84.2606 18.9574 85.3794 20.704 88.1242 20.704C90.1661 20.704 91.8962 19.7344 92.4586 17.5639L95.8698 18.6812C94.5982 22.3993 91.4804 23.9662 87.8736 23.9662ZM91.5966 13.9164C91.1626 11.7716 89.8604 10.7699 87.9897 10.7699C87.099 10.7004 86.2159 10.9855 85.516 11.5685C84.816 12.1514 84.3505 12.9896 84.2117 13.9164H91.5966Z" fill="#191A25"></path><path d="M104.007 20.6977C102.301 20.6977 101.739 20.139 101.739 18.1676V11.1231H106.213V7.97656H95.2095V11.1231H97.5876V19.8821C97.5876 22.4508 98.8102 23.9342 102.405 23.9342C103.74 23.9495 105.072 23.8117 106.379 23.5232V20.4408C105.596 20.5957 104.803 20.6816 104.007 20.6977Z" fill="#191A25"></path><path d="M97.5386 2.17822C97.7088 3.28888 98.2081 4.3149 98.9654 5.11037C99.7227 5.90585 100.699 6.43028 101.757 6.6091V2.17822H97.5386Z" fill="#191A25"></path></g><defs><clipPath id="clip0_2224_892"><rect width="107" height="25" fill="white"></rect></clipPath></defs></svg>